<?xml version="1.0" standalone="no"?>
<!DOCTYPE svg PUBLIC "-//W3C//DTD SVG 20010904//EN"
 "http://www.w3.org/TR/2001/REC-SVG-20010904/DTD/svg10.dtd">
<svg version="1.0" xmlns="http://www.w3.org/2000/svg"
 width="500.000000pt" height="500.000000pt" viewBox="0 0 500.000000 500.000000"
 preserveAspectRatio="xMidYMid meet">
<metadata>
Created by potrace 1.14, written by Peter Selinger 2001-2017
</metadata>
<g transform="translate(0.000000,500.000000) scale(0.100000,-0.100000)"
fill="#000000" stroke="none">
<path d="M909 4869 c-50 -7 -152 -55 -186 -88 -12 -12 -27 -21 -33 -21 -5 0
-10 -3 -10 -7 0 -5 -27 -36 -60 -71 -33 -35 -60 -68 -60 -73 0 -5 -9 -20 -21
-33 -54 -62 -181 -335 -223 -481 -10 -33 -22 -73 -28 -90 -13 -39 -48 -182
-55 -220 -2 -16 -11 -55 -19 -86 -7 -31 -16 -76 -19 -100 -3 -24 -10 -69 -15
-99 -5 -30 -12 -82 -15 -115 -3 -33 -8 -82 -12 -110 -9 -80 -12 -104 -19 -215
-10 -138 -10 -901 0 -1055 7 -115 9 -142 21 -230 3 -22 8 -67 10 -100 5 -54
10 -93 21 -150 2 -11 5 -36 8 -55 3 -19 10 -57 16 -85 6 -27 15 -72 20 -99 5
-26 14 -62 19 -80 6 -17 13 -47 16 -66 3 -19 15 -61 26 -92 11 -31 22 -65 24
-75 14 -73 110 -294 180 -418 79 -140 212 -279 315 -328 l65 -32 225 1 c198 0
331 6 395 18 34 6 108 16 169 22 33 3 69 8 80 10 12 3 59 11 106 19 47 8 135
26 195 40 61 14 121 28 135 31 14 2 45 11 70 19 25 7 61 17 80 20 19 4 40 11
45 15 6 4 44 17 85 29 221 66 557 211 758 328 41 24 75 43 77 43 2 0 32 18 66
40 35 22 72 43 82 46 9 4 17 10 17 14 0 5 21 21 47 36 26 15 56 36 67 46 11
10 23 18 27 18 4 0 14 6 21 13 7 7 40 33 73 57 33 25 69 54 81 65 12 11 45 40
75 65 129 109 339 334 434 464 16 23 32 43 35 46 3 3 16 21 27 40 12 19 31 45
43 57 11 13 21 26 22 30 1 9 20 42 47 83 58 86 184 357 222 475 10 33 24 75
30 92 17 54 58 227 65 279 3 27 8 51 9 54 12 20 19 124 19 300 1 189 -1 211
-23 280 -39 124 -117 266 -199 363 -45 53 -215 220 -251 247 -19 14 -40 31
-47 38 -7 6 -16 12 -19 12 -4 0 -25 14 -46 31 -50 39 -205 136 -241 150 -16 6
-28 15 -28 20 0 5 -8 9 -17 9 -10 0 -29 9 -43 20 -14 11 -28 20 -32 20 -3 0
-51 21 -105 47 -54 26 -100 48 -103 48 -3 1 -16 6 -30 12 -106 46 -361 139
-409 149 -13 3 -31 9 -40 13 -9 5 -29 11 -46 14 -16 3 -50 13 -75 22 -25 9
-61 18 -80 21 -19 4 -42 9 -50 14 -13 6 -49 16 -140 36 -79 18 -117 26 -136
28 -11 2 -25 5 -30 8 -10 6 -213 43 -349 64 -27 4 -57 9 -65 10 -8 2 -29 5
-47 9 -17 3 -58 8 -90 10 -56 5 -93 10 -158 20 -16 3 -66 7 -111 10 -44 2
-101 7 -125 10 -176 22 -665 38 -760 24z"/>
</g>
</svg>
