<?xml version="1.0" standalone="no"?>
<!DOCTYPE svg PUBLIC "-//W3C//DTD SVG 20010904//EN"
 "http://www.w3.org/TR/2001/REC-SVG-20010904/DTD/svg10.dtd">
<svg version="1.0" xmlns="http://www.w3.org/2000/svg"
 width="501.000000pt" height="501.000000pt" viewBox="0 0 501.000000 501.000000"
 preserveAspectRatio="xMidYMid meet">
<metadata>
Created by potrace 1.14, written by Peter Selinger 2001-2017
</metadata>
<g transform="translate(0.000000,501.000000) scale(0.100000,-0.100000)"
fill="#000000" stroke="none">
<path d="M2875 4934 c-38 -6 -86 -15 -105 -18 -42 -8 -226 -70 -290 -98 -151
-66 -337 -172 -504 -286 l-110 -75 -115 7 c-309 17 -468 19 -521 6 -102 -24
-194 -84 -266 -174 -21 -27 -44 -54 -49 -60 -56 -60 -178 -320 -224 -476 -12
-41 -26 -86 -31 -100 -25 -70 -100 -437 -100 -485 0 -13 -6 -30 -13 -37 -21
-22 -151 -217 -183 -273 -9 -16 -23 -41 -31 -55 -51 -86 -66 -115 -111 -205
-85 -172 -149 -368 -158 -485 -3 -41 -7 -81 -9 -87 -3 -7 0 -52 6 -100 18
-144 66 -211 305 -423 96 -85 171 -148 196 -164 18 -12 30 -30 34 -54 7 -42
51 -222 64 -267 41 -134 58 -182 92 -265 124 -295 255 -459 419 -526 57 -23
76 -26 189 -25 135 0 300 8 340 15 29 6 90 13 180 21 166 15 600 112 780 175
47 16 93 20 315 23 143 3 271 7 285 10 14 3 74 13 135 22 183 26 527 122 621
173 10 6 75 38 143 72 193 96 365 218 534 380 80 76 124 134 166 216 50 98 68
155 99 314 9 46 9 302 0 360 -4 25 -12 79 -18 120 -6 41 -18 102 -27 135 -8
33 -17 71 -19 85 -3 14 -11 43 -19 65 -7 22 -25 76 -38 120 -14 44 -33 98 -42
120 -13 30 -17 65 -15 145 4 186 1 244 -15 300 -8 30 -18 65 -20 78 -10 41
-62 141 -119 225 -92 136 -238 276 -403 387 -45 30 -82 59 -83 64 0 5 -7 16
-15 25 -31 34 -65 79 -65 89 0 5 -7 12 -15 16 -8 3 -15 10 -15 16 0 5 -7 18
-16 28 -8 9 -56 69 -106 132 -80 103 -127 160 -185 226 -148 171 -143 165
-326 357 -77 81 -146 147 -152 147 -7 0 -18 7 -25 15 -18 22 -140 56 -213 59
-34 1 -93 -3 -132 -10z"/>
</g>
</svg>
